<?xml version="1.0" encoding="UTF-8"?>
<svg viewBox="0 0 355.96317 360.11545" xmlns="http://www.w3.org/2000/svg">
 <defs>
  <filter id="d">
   <feGaussianBlur stdDeviation="3.12419"/>
  </filter>
  <filter id="e">
   <feGaussianBlur stdDeviation="5.18758"/>
  </filter>
  <linearGradient id="c" x1="514.02" x2="514.75" y1="420.84" y2="325.8" gradientUnits="userSpaceOnUse">
   <stop stop-color="#cbcbcb" offset="0"/>
   <stop stop-color="#fff" offset="1"/>
  </linearGradient>
  <radialGradient id="a" cx="444.29" cy="238.86" r="156.83" gradientTransform="matrix(1.3915 .083887 -.17298 2.8692 -539.29 -602.63)" gradientUnits="userSpaceOnUse">
   <stop offset="0"/>
   <stop stop-opacity="0" offset="1"/>
  </radialGradient>
  <radialGradient id="b" cx="78.522" cy="21.262" r="182.12" gradientTransform="matrix(-2.2665e-8 2.0001 -2.2308 -3.4299e-8 216.55 -239.74)" gradientUnits="userSpaceOnUse">
   <stop stop-color="#fff" offset="0"/>
   <stop stop-color="#fff" stop-opacity=".49804" offset=".5"/>
   <stop stop-color="#fff" stop-opacity="0" offset="1"/>
  </radialGradient>
 </defs>
 <path transform="matrix(1.1286 0 0 1.1481 -40.433 33.532)" d="m351.24 127.62a156.83 156.83 0 1 1 -313.66 0 156.83 156.83 0 1 1 313.66 0z" filter="url(#d)" opacity=".58704"/>
 <path transform="matrix(1.109 0 0 1.109 -41.678 34.745)" d="m351.24 127.62a156.83 156.83 0 1 1 -313.66 0 156.83 156.83 0 1 1 313.66 0z" fill="#fff"/>
 <path transform="matrix(1.0113 0 0 1.0113 -22.673 47.221)" d="m351.24 127.62a156.83 156.83 0 1 1 -313.66 0 156.83 156.83 0 1 1 313.66 0z" fill="#b3b3b3"/>
 <path transform="matrix(.84921 0 0 .84921 30.313 90.998)" d="m351.24 99.436a182.12 182.12 0 1 1 -364.25 0 182.12 182.12 0 1 1 364.25 0z" fill="#d40000"/>
 <g opacity=".7362">
  <path transform="matrix(-.08569 -.95529 .95529 -.08569 68.669 372.93)" d="m351.24 127.62a156.83 156.83 0 1 1 -313.66 0 156.83 156.83 0 1 1 313.66 0z" fill="url(#a)"/>
 </g>
 <g opacity=".80921">
  <path transform="matrix(.6746 0 0 .51984 59.841 67.545)" d="m351.24 99.436c0 100.53-81.591 182.12-182.12 182.12s-182.12-81.591-182.12-182.12 81.591-182.12 182.12-182.12 182.12 81.591 182.12 182.12z" fill="url(#b)"/>
 </g>
 <path transform="matrix(1.051 0 0 1.0407 -122.71 -74.32)" d="m300.97 122.87 102.18 169.28c6.0123 9.6462 8.2421 14.238 7.9997 18.528 0 0 1.4743 10.927-7.5328 16.217-4.5528 2.6735-13.754 1.9112-13.754 1.9112l-210.2-0.3219c-7.4828-0.07027-22.462 1.4659-26.39-14.174-0.60526-7.2365 1.9817-13.704 7.7609-22.16l102.18-169.28c7.4691-12.374 29.579-12.667 37.771 0z" filter="url(#e)" opacity=".66397"/>
 <g transform="translate(-355.48 -180.52)">
  <path d="m545.97 238.69 98.701 166.41c5.8079 9.4825 7.9619 13.997 7.7277 18.213 0 0 1.4242 10.742-7.2767 15.941-4.398 2.6282-13.286 1.8788-13.286 1.8788l-203.06-0.31644c-7.2285-0.06907-21.698 1.4411-25.493-13.933-0.58468-7.1137 1.9143-13.471 7.4971-21.784l98.701-166.41c7.2152-12.165 28.574-12.452 36.487 0z" fill="url(#c)" stroke="#ccc" stroke-width="5.4"/>
  <path d="m527.32 248.83c-9.4791 0-13.955 2.3698-13.955 7.8992 0 4.2129 0.78992 10.269 1.8432 21.065 3.6863 30.017 5.2662 60.561 7.6359 94.264 1.3165 1.8432 7.8992 1.8432 9.2158 0 2.3698-33.703 4.2129-64.247 7.6359-94.264 1.3165-10.796 1.8432-16.852 1.8432-21.065 0-5.5295-4.4762-7.8992-13.955-7.8992h-0.26331m0.26331 178.26c8.6892 0 15.009-6.0561 15.009-15.535 0-8.6892-6.3194-15.272-15.009-15.272-8.4258 0-14.745 6.5827-14.745 15.272 0 9.4791 6.3194 15.535 14.482 15.535h0.26331"/>
 </g>
</svg>
