<?xml version="1.0" encoding="utf-8"?>
<!-- Svg Vector Icons : http://www.onlinewebfonts.com/icon -->
<!DOCTYPE svg PUBLIC "-//W3C//DTD SVG 1.1//EN" "http://www.w3.org/Graphics/SVG/1.1/DTD/svg11.dtd">
<svg version="1.1" xmlns="http://www.w3.org/2000/svg" xmlns:xlink="http://www.w3.org/1999/xlink" x="0px" y="0px" viewBox="0 0 1000 1000" enable-background="new 0 0 1000 1000" xml:space="preserve">
<metadata> Svg Vector Icons : http://www.onlinewebfonts.com/icon </metadata>
<g><g transform="translate(0.000000,511.000000) scale(0.100000,-0.100000)"><path d="M1830.2,4998.8c-221.8-37-443.5-167.3-589.4-346.2c-149.8-186.7-175.1-276.2-184.8-645.8l-7.8-317.1H816.8c-260.7,0-326.8-21.4-377.4-116.7c-37-72-37-122.5,0-194.5c50.6-97.3,116.7-116.7,379.3-116.7h233.4v-622.5v-622.5H818.7c-262.6,0-328.7-19.4-379.3-116.7c-37-72-37-122.5,0-194.5c50.6-97.3,116.7-116.7,379.3-116.7h233.4v-640v-640l-264.6-7.8L523,295.3l-56.4-64.2c-35-38.9-56.4-83.7-56.4-120.6c0-37,21.4-81.7,56.4-120.6L523-74.3l264.6-5.8l264.6-7.8v-640v-640H818.7c-262.6,0-328.7-19.5-379.3-116.7c-37-72-37-122.5,0-194.5c50.6-97.3,116.7-116.7,379.3-116.7h233.4v-622.5v-622.5H818.7c-262.6,0-328.7-19.5-379.3-116.7c-37-72-37-122.5,0-194.5c50.6-97.3,116.7-116.7,379.3-116.7h233.4v-280.1c0-225.6,7.8-305.4,38.9-406.6c75.9-247.1,307.3-482.4,568-579.7l122.5-46.7l3063.7-5.8c3408.1-5.8,3227.1-11.7,3454.7,124.5c212,126.4,350.1,297.6,418.2,515.5c35,110.9,37,194.5,37,1244.9c0,618.6-3.9,1126.3-9.7,1126.3c-3.9,0-95.3-62.2-202.3-136.2l-194.5-138.1l-5.8-976.5c-5.8-959-5.8-978.4-48.6-1054.3c-54.5-103.1-151.7-192.6-258.7-241.2c-87.5-38.9-114.8-40.8-2630-40.8H2861.2v4474v4474h2544.4c2515.2,0,2542.4-1.9,2630-40.8c107-48.6,204.2-138.1,258.7-241.2l42.8-77.8l5.8-2143.6c2-1180.8,9.7-2145.6,15.6-2145.6s97.3,62.3,204.2,138.1l192.6,138.1v2019.1c0,1927.7-1.9,2025-37,2137.8c-70,221.8-247,433.8-453.2,538.8c-214,108.9-79.7,105-3361.4,101.1C3240.5,5008.6,1857.5,5002.7,1830.2,4998.8z M2666.7,108.5v-4474l-422.1,5.8c-420.2,5.8-424.1,5.8-513.5,58.4c-208.1,122.5-270.4,264.5-270.4,612.7v219.8h107c83.6,0,124.5-11.7,198.4-58.4c149.8-95.3,330.7-72,439.6,56.4c188.7,225.6,42.8,548.5-250.9,554.4c-87.5,0-118.7-9.7-192.6-62.3c-73.9-52.5-107-62.2-194.5-62.2h-107v622.5v622.5h107c85.6,0,124.5-11.7,188.7-54.5c66.1-42.8,103.1-52.5,200.4-52.5c101.2,0,130.3,7.8,190.6,54.5c171.2,130.3,190.6,365.7,44.7,511.6c-118.7,118.7-295.7,128.4-439.6,25.3c-62.3-46.7-97.3-56.4-184.8-56.4h-107V-726v641.9h107c87.5,0,120.6-9.7,190.6-60.3c157.6-110.9,326.8-95.3,449.4,40.9c161.5,179,77.8,455.2-161.5,527.2c-99.2,29.2-192.6,9.7-291.8-60.3c-64.2-48.6-99.2-58.4-186.7-58.4h-107v641.9v641.9h107c87.5,0,120.6-9.7,194.5-62.2c75.9-52.5,105-62.2,194.5-62.2c196.5,3.9,328.7,136.2,328.7,328.7c0,118.7-42.8,204.3-138.1,276.2c-60.3,46.7-89.5,54.5-190.6,54.5c-97.3,0-134.2-9.7-200.4-52.5c-64.2-42.8-103.1-54.5-188.7-54.5h-107v622.5v622.5h108.9c83.6,0,120.6-9.7,169.2-46.7c142-107,332.6-99.2,451.3,19.5c149.8,149.8,126.4,387.1-52.5,519.4c-79.8,60.3-241.2,66.1-342.4,15.6c-42.8-21.4-83.7-48.6-91.4-60.3c-5.8-9.7-64.2-19.4-128.4-19.4h-114.8v219.8c0,315.1,48.6,451.3,206.2,570c120.6,93.4,182.8,103.1,606.9,105h392.9V108.5z"/><path d="M4150.9,3063.3l-219.8-219.8L3791,2983.6c-180.9,179-237.3,196.5-336.5,97.3c-40.9-40.8-68.1-87.5-68.1-114.8c0-68.1,81.7-173.1,287.9-369.6c165.3-159.5,182.9-171.2,258.7-171.2c77.8,0,91.4,9.7,361.8,278.2c315.1,307.4,352.1,365.7,309.3,468.8c-33.1,77.8-81.7,108.9-171.2,108.9C4376.5,3281.2,4341.5,3254,4150.9,3063.3z"/><path d="M4991.2,3049.7c-105-44.7-153.7-184.8-99.2-289.8c66.1-126.4,11.7-122.6,1453.1-116.7l1305.3,5.8l56.4,64.2c83.7,91.4,79.8,198.4-9.7,287.9l-66.1,66.1l-1299.4-1.9C5615.7,3065.3,5012.6,3057.5,4991.2,3049.7z"/><path d="M4150.9,1487.7l-219.8-217.9l-145.9,143.9c-126.4,126.4-153.7,144-215.9,144c-56.4,0-83.6-13.6-126.4-62.2c-103.1-114.8-75.9-175.1,190.6-435.7c210.1-206.2,268.4-239.3,350.1-208.1c72,27.2,587.5,536.9,620.5,614.7c50.6,116.7-35,239.3-169.2,239.3C4382.4,1705.6,4339.6,1674.4,4150.9,1487.7z"/><path d="M4991.2,1454.6c-97.3-40.9-149.8-173.1-108.9-278.2c11.7-31.1,48.6-72,83.6-93.4c62.3-37,99.2-38.9,1365.6-38.9h1299.4l66.1,66.1c54.5,54.5,66.2,81.7,66.2,147.8c0,66.1-11.7,93.4-66.2,147.8l-66.1,66.1l-1299.4-1.9C5615.7,1470.2,5012.6,1462.4,4991.2,1454.6z"/><path d="M4152.8-88l-221.8-217.9l-143.9,140.1C3656.8-39.3,3635.4-25.7,3565.4-25.7c-64.2,0-87.5-11.7-130.3-62.3c-89.5-105-64.2-163.4,169.2-400.7c221.8-223.7,285.9-266.5,363.7-247c62.3,15.6,612.7,556.3,643.9,634.1c29.2,68.1-17.5,177-89.5,210.1C4415.4,157.1,4382.4,139.6,4152.8-88z"/><path d="M7111.5-1204.5c-972.6-690.6-1787.7-1268.3-1807.1-1283.8c-35-23.3-31.1-25.3,29.2-15.6c93.4,15.6,171.2-19.5,200.4-89.5c13.6-35,54.5-75.9,101.1-99.2c157.6-83.7,245.1-204.2,268.5-369.6c7.8-50.6,29.2-105.1,50.6-124.5c52.5-46.7,64.2-128.4,33.1-219.8c-19.5-52.5-21.4-75.9-5.8-68.1c21.4,13.6,3351.6,2369.3,3517,2489.9l91.4,66.1l-11.7,130.3c-17.5,212-27.2,237.3-200.4,482.4L9212.4-68.5L9064.6-8.2c-79.8,33.1-155.6,60.3-165.4,60.3C8889.5,52.1,8086.1-514,7111.5-1204.5z"/><path d="M4991.2-101.6c-97.3-40.8-149.8-173.1-108.9-278.2c11.7-31.1,48.6-72,83.6-93.4c62.3-38.9,91.4-38.9,1206-35l1143.8,5.8l52.5,54.5c44.7,44.7,54.5,70,54.5,149.8c0,79.7-9.7,105-54.5,149.8l-52.5,54.5L6172-89.9C5543.7-88,5012.6-93.8,4991.2-101.6z"/><path d="M4975.7-2986.4c-15.6-25.3-108.9-182.8-206.2-350.1c-161.5-276.2-175.1-309.3-155.6-354c13.6-27.2,35-52.5,48.6-58.4c15.6-5.8,198.4,25.3,410.4,66.1C5283-3640,5458.1-3605,5460-3605c13.6,0-40.8,180.9-79.7,268.4c-50.6,108.9-221.8,301.5-319,359.9C5002.9-2943.6,5002.9-2943.6,4975.7-2986.4z"/></g></g>
</svg>