<?xml version="1.0" ?><!DOCTYPE svg  PUBLIC '-//W3C//DTD SVG 1.1//EN'  'http://www.w3.org/Graphics/SVG/1.1/DTD/svg11.dtd'><svg enable-background="new 0 0 1024 1024" height="1024px" id="Layer_1" version="1.1" viewBox="0 0 1024 1024" width="1024px" xml:space="preserve" xmlns="http://www.w3.org/2000/svg" xmlns:xlink="http://www.w3.org/1999/xlink"><g><g><g><path clip-rule="evenodd" d="M644.877,764.422c0-90.637,0-180.112,0-271.72      c19.329,13.255,37.371,25.627,55.413,37.996c16.194,11.101,18.919,11.045,35.633-0.064      c92.48-61.468,184.979-122.915,277.479-184.355c2.803-1.861,5.698-3.585,9.774-6.141c0.322,4.208,0.777,7.36,0.777,10.514      c0.035,118.218,0.089,236.438-0.007,354.656c-0.034,39.297-19.884,59.078-58.972,59.097      c-102.802,0.047-205.604,0.018-308.406,0.018C652.865,764.422,649.163,764.422,644.877,764.422z" fill-rule="evenodd"/><path clip-rule="evenodd" d="M645.616,216.848c3.756,0,7.123,0,10.489,0      c108.559,0,217.119-0.009,325.679,0.01c19.41,0.004,34.427,11.871,40.529,30.528c2.68,8.197-0.047,12.205-6.669,16.641      c-84.095,56.307-168.013,112.878-251.978,169.38c-11.994,8.072-24.149,15.92-35.93,24.292      c-6.448,4.579-12.154,4.828-18.844,0.521c-19.187-12.357-38.738-24.161-57.786-36.721c-3.179-2.095-6.486-6.876-6.505-10.434      c-0.337-63.505-0.176-127.011-0.094-190.516C644.512,219.837,644.919,219.126,645.616,216.848z" fill-rule="evenodd"/></g><g><path clip-rule="evenodd" d="M596.717,1024c-199.085-41.667-397.39-83.177-596.444-124.84      c0-4.853,0-8.973,0-13.094C0.272,633.553,0.349,381.04,0,128.527c-0.016-10.461,2.793-14.09,13.038-16.049      C172.19,82.075,331.259,51.237,490.35,20.507C525.431,13.73,560.517,6.979,596.717,0      C596.717,341.421,596.717,682.165,596.717,1024z M438.037,511.025c-0.402-41.613-6.094-80.035-26.656-114.852      c-16.6-28.107-39.024-49.44-71.278-58.626c-62.755-17.872-122.839,11.521-152.41,75.036      c-18.947,40.696-22.994,83.874-19.337,128.078c3.169,38.303,14.261,73.688,38.958,103.96      c49.093,60.169,138.435,60.569,188.185,0.776C428.438,605.808,437.385,558.686,438.037,511.025z" fill-rule="evenodd"/><path clip-rule="evenodd" d="M232.92,511.935c-0.085-29.653,3.91-58.359,20.699-83.795      c15.494-23.472,39.016-33.061,64.938-26.578c20.146,5.038,32.316,19.265,40.427,37.222      c13.847,30.658,16.247,63.273,12.056,95.936c-2.325,18.11-7.45,36.464-14.808,53.175c-9.507,21.596-27.783,33.954-52.195,34.493      c-24.572,0.542-41.658-12.202-53.632-32.584C236.276,565.753,232.853,539.219,232.92,511.935z" fill-rule="evenodd"/></g></g></g></svg>