<?xml version="1.0" encoding="windows-1252"?>
<!-- Generator: Adobe Illustrator 19.0.0, SVG Export Plug-In . SVG Version: 6.00 Build 0)  -->
<svg version="1.1" id="Layer_1" xmlns="http://www.w3.org/2000/svg" xmlns:xlink="http://www.w3.org/1999/xlink" x="0px" y="0px" viewBox="0 0 392.598 392.598" style="enable-background:new 0 0 392.598 392.598;" xml:space="preserve">
<path style="fill:#FFFFFF;" d="M100.889,254.448l46.675-174.158c1.228-4.784,5.56-8.145,10.537-8.145h50.683V32.711  c0-6.012-4.848-10.925-10.925-10.925H32.751c-6.012,0-10.925,4.848-10.925,10.925v327.111c0,6.012,4.848,10.925,10.925,10.925  h165.107c6.012,0,10.925-4.848,10.925-10.925v-91.604h-97.422C104.832,268.671,99.079,261.495,100.889,254.448z"/>
<g>
	<path style="fill:#FFC10D;" d="M247.378,200.598c-5.43,3.491-10.537,3.038-15.386-2.004l-69.172-91.152l-37.236,138.925H326.57   l36.137-134.917L247.378,200.598z"/>
	<polygon style="fill:#FFC10D;" points="349.713,93.931 180.016,93.931 242.723,176.614  "/>
</g>
<path style="fill:#56ACE0;" d="M111.361,268.218c-3.426,0-6.594-1.552-8.663-4.267c-2.069-2.715-2.78-6.206-1.875-9.438  l45.899-171.378H43.612v22.044h56.436c6.012,0,10.925,4.848,10.925,10.925c0,6.012-4.848,10.925-10.925,10.925H43.612v30.319h27.345  c6.012,0,10.925,4.848,10.925,10.925c0,6.012-4.848,10.925-10.925,10.925H43.612v122.311h143.321v-33.422h-75.572V268.218z"/>
<g>
	<path style="fill:#194F82;" d="M381.713,72.145H230.57V32.711C230.57,14.675,215.959,0,197.858,0H32.751   C14.715,0,0.04,14.675,0.04,32.711v327.111c0,18.101,14.675,32.776,32.711,32.776h165.107c18.036,0,32.711-14.675,32.711-32.711   v-91.669h104.404c4.978,0,9.244-3.297,10.537-8.145l46.675-174.158C394.19,77.899,387.725,72.145,381.713,72.145z M349.713,93.931   l-106.99,82.683l-62.772-82.683H349.713z M208.719,359.887c0,6.012-4.848,10.925-10.925,10.925H32.751   c-6.012,0-10.925-4.848-10.925-10.925V32.776c0-6.012,4.848-10.925,10.925-10.925h165.107c6.012,0,10.925,4.848,10.925,10.925   V72.21h-50.683c-4.913,0-9.244,3.297-10.537,8.145l-46.675,174.158c-1.745,7.046,3.943,14.222,10.537,13.77h97.358v91.604H208.719z    M326.634,246.303H125.584l0,0l37.236-138.925l69.172,91.152c4.784,5.107,9.956,5.56,15.386,2.004l115.459-89.147L326.634,246.303z   "/>
	<path style="fill:#194F82;" d="M132.63,63.806c6.012,0,10.925-4.848,10.925-10.925s-4.848-10.925-10.925-10.925H98.044   c-6.012,0-10.925,4.848-10.925,10.925c0,6.012,4.848,10.925,10.925,10.925H132.63z"/>
	<path style="fill:#194F82;" d="M92.161,329.244c0,6.012,4.848,10.925,10.925,10.925h24.501c6.012,0,10.925-4.848,10.925-10.925   c0-6.012-4.848-10.925-10.925-10.925h-24.501C97.01,318.319,92.161,323.232,92.161,329.244z"/>
</g>
<g>
</g>
<g>
</g>
<g>
</g>
<g>
</g>
<g>
</g>
<g>
</g>
<g>
</g>
<g>
</g>
<g>
</g>
<g>
</g>
<g>
</g>
<g>
</g>
<g>
</g>
<g>
</g>
<g>
</g>
</svg>